<mxfile host="app.diagrams.net" agent="Mozilla/5.0 (X11; Linux x86_64) AppleWebKit/537.36 (KHTML, like Gecko) Chrome/135.0.0.0 Safari/537.36" version="27.0.5" pages="2">
  <diagram name="barn layouts" id="1bw2kLN_7pUAFRUjhU26">
    <mxGraphModel dx="1556" dy="898" grid="1" gridSize="10" guides="1" tooltips="1" connect="1" arrows="1" fold="1" page="1" pageScale="1" pageWidth="850" pageHeight="1100" math="0" shadow="0">
      <root>
        <mxCell id="0" />
        <mxCell id="1" parent="0" />
        <mxCell id="Pz1WyP6sGXRsh5Ih0FiO-2" value="" style="rounded=0;whiteSpace=wrap;html=1;" parent="1" vertex="1">
          <mxGeometry x="290" y="440" width="1200" height="320" as="geometry" />
        </mxCell>
        <mxCell id="zIE6sgV4vXfkruaz9dAc-6" value="" style="edgeStyle=orthogonalEdgeStyle;rounded=0;orthogonalLoop=1;jettySize=auto;html=1;" parent="1" source="Pz1WyP6sGXRsh5Ih0FiO-3" target="1PrPK5rhY788J8MFo_wC-62" edge="1">
          <mxGeometry relative="1" as="geometry" />
        </mxCell>
        <mxCell id="Pz1WyP6sGXRsh5Ih0FiO-3" value="" style="rounded=0;whiteSpace=wrap;html=1;" parent="1" vertex="1">
          <mxGeometry x="250" y="437" width="240" height="313" as="geometry" />
        </mxCell>
        <mxCell id="Pz1WyP6sGXRsh5Ih0FiO-6" value="Bedroom" style="text;html=1;align=center;verticalAlign=middle;whiteSpace=wrap;rounded=0;" parent="1" vertex="1">
          <mxGeometry x="300" y="457" width="60" height="30" as="geometry" />
        </mxCell>
        <mxCell id="Pz1WyP6sGXRsh5Ih0FiO-7" value="" style="whiteSpace=wrap;html=1;aspect=fixed;" parent="1" vertex="1">
          <mxGeometry x="370" y="537" width="120" height="120" as="geometry" />
        </mxCell>
        <mxCell id="Pz1WyP6sGXRsh5Ih0FiO-8" value="" style="ellipse;whiteSpace=wrap;html=1;" parent="1" vertex="1">
          <mxGeometry x="450" y="527" width="30" height="40" as="geometry" />
        </mxCell>
        <mxCell id="Pz1WyP6sGXRsh5Ih0FiO-9" value="" style="ellipse;whiteSpace=wrap;html=1;" parent="1" vertex="1">
          <mxGeometry x="450" y="587" width="30" height="40" as="geometry" />
        </mxCell>
        <mxCell id="Pz1WyP6sGXRsh5Ih0FiO-10" value="" style="rounded=0;whiteSpace=wrap;html=1;" parent="1" vertex="1">
          <mxGeometry x="490" y="560" width="190" height="187" as="geometry" />
        </mxCell>
        <mxCell id="Pz1WyP6sGXRsh5Ih0FiO-12" value="Bathroom" style="text;html=1;align=center;verticalAlign=middle;whiteSpace=wrap;rounded=0;" parent="1" vertex="1">
          <mxGeometry x="546.25" y="647" width="60" height="30" as="geometry" />
        </mxCell>
        <mxCell id="Pz1WyP6sGXRsh5Ih0FiO-14" value="West" style="text;html=1;align=center;verticalAlign=middle;whiteSpace=wrap;rounded=0;" parent="1" vertex="1">
          <mxGeometry x="730" y="318" width="60" height="30" as="geometry" />
        </mxCell>
        <mxCell id="Pz1WyP6sGXRsh5Ih0FiO-15" value="East" style="text;html=1;align=center;verticalAlign=middle;whiteSpace=wrap;rounded=0;" parent="1" vertex="1">
          <mxGeometry x="566" y="318" width="60" height="30" as="geometry" />
        </mxCell>
        <mxCell id="Pz1WyP6sGXRsh5Ih0FiO-16" value="" style="shape=mxgraph.signs.travel.upstairs;html=1;pointerEvents=1;fillColor=#000000;strokeColor=none;verticalLabelPosition=bottom;verticalAlign=top;align=center;rotation=-90;" parent="1" vertex="1">
          <mxGeometry x="1420" y="647" width="149" height="85" as="geometry" />
        </mxCell>
        <mxCell id="Pz1WyP6sGXRsh5Ih0FiO-17" value="" style="whiteSpace=wrap;html=1;aspect=fixed;" parent="1" vertex="1">
          <mxGeometry x="1450" y="537" width="80" height="80" as="geometry" />
        </mxCell>
        <mxCell id="Pz1WyP6sGXRsh5Ih0FiO-18" value="Deck" style="text;html=1;align=center;verticalAlign=middle;whiteSpace=wrap;rounded=0;" parent="1" vertex="1">
          <mxGeometry x="1460" y="552" width="60" height="30" as="geometry" />
        </mxCell>
        <mxCell id="Pz1WyP6sGXRsh5Ih0FiO-19" value="" style="verticalLabelPosition=bottom;html=1;verticalAlign=top;align=center;shape=mxgraph.floorplan.windowGlider;dx=0.25;rotation=-90;" parent="1" vertex="1">
          <mxGeometry x="1400" y="567" width="100" height="10" as="geometry" />
        </mxCell>
        <mxCell id="Pz1WyP6sGXRsh5Ih0FiO-20" value="" style="verticalLabelPosition=bottom;html=1;verticalAlign=top;align=center;shape=mxgraph.floorplan.window;rotation=-90;" parent="1" vertex="1">
          <mxGeometry x="200" y="567" width="100" height="10" as="geometry" />
        </mxCell>
        <mxCell id="Pz1WyP6sGXRsh5Ih0FiO-23" value="" style="verticalLabelPosition=bottom;html=1;verticalAlign=top;align=center;shape=mxgraph.floorplan.window;" parent="1" vertex="1">
          <mxGeometry x="804" y="432" width="100" height="10" as="geometry" />
        </mxCell>
        <mxCell id="Pz1WyP6sGXRsh5Ih0FiO-24" value="" style="verticalLabelPosition=bottom;html=1;verticalAlign=top;align=center;shape=mxgraph.floorplan.window;" parent="1" vertex="1">
          <mxGeometry x="550" y="432" width="100" height="10" as="geometry" />
        </mxCell>
        <mxCell id="Pz1WyP6sGXRsh5Ih0FiO-25" value="" style="verticalLabelPosition=bottom;html=1;verticalAlign=top;align=center;shape=mxgraph.floorplan.window;" parent="1" vertex="1">
          <mxGeometry x="712.5" y="750" width="100" height="10" as="geometry" />
        </mxCell>
        <mxCell id="Pz1WyP6sGXRsh5Ih0FiO-26" value="" style="verticalLabelPosition=bottom;html=1;verticalAlign=top;align=center;shape=mxgraph.floorplan.window;" parent="1" vertex="1">
          <mxGeometry x="1070" y="754" width="100" height="10" as="geometry" />
        </mxCell>
        <mxCell id="Pz1WyP6sGXRsh5Ih0FiO-27" value="" style="verticalLabelPosition=bottom;html=1;verticalAlign=top;align=center;shape=mxgraph.floorplan.window;" parent="1" vertex="1">
          <mxGeometry x="1090" y="437" width="100" height="10" as="geometry" />
        </mxCell>
        <mxCell id="Pz1WyP6sGXRsh5Ih0FiO-28" value="" style="verticalLabelPosition=bottom;html=1;verticalAlign=top;align=center;shape=mxgraph.floorplan.window;" parent="1" vertex="1">
          <mxGeometry x="520" y="751" width="100" height="10" as="geometry" />
        </mxCell>
        <mxCell id="Pz1WyP6sGXRsh5Ih0FiO-29" value="" style="verticalLabelPosition=bottom;html=1;verticalAlign=top;align=center;shape=mxgraph.floorplan.range_1;" parent="1" vertex="1">
          <mxGeometry x="680" y="640" width="50" height="62" as="geometry" />
        </mxCell>
        <mxCell id="Pz1WyP6sGXRsh5Ih0FiO-30" value="" style="rounded=0;whiteSpace=wrap;html=1;" parent="1" vertex="1">
          <mxGeometry x="680" y="694" width="50" height="60" as="geometry" />
        </mxCell>
        <mxCell id="Pz1WyP6sGXRsh5Ih0FiO-31" value="" style="rounded=0;whiteSpace=wrap;html=1;" parent="1" vertex="1">
          <mxGeometry x="680" y="727" width="260" height="30" as="geometry" />
        </mxCell>
        <mxCell id="Pz1WyP6sGXRsh5Ih0FiO-32" value="" style="verticalLabelPosition=bottom;html=1;verticalAlign=top;align=center;shape=mxgraph.floorplan.sink_double2;" parent="1" vertex="1">
          <mxGeometry x="802.5" y="726" width="50" height="31" as="geometry" />
        </mxCell>
        <mxCell id="Pz1WyP6sGXRsh5Ih0FiO-33" value="" style="verticalLabelPosition=bottom;html=1;verticalAlign=top;align=center;shape=mxgraph.floorplan.refrigerator;" parent="1" vertex="1">
          <mxGeometry x="932.5" y="716" width="50" height="45" as="geometry" />
        </mxCell>
        <mxCell id="Pz1WyP6sGXRsh5Ih0FiO-34" value="" style="verticalLabelPosition=bottom;html=1;verticalAlign=top;align=center;shape=mxgraph.floorplan.sofa;" parent="1" vertex="1">
          <mxGeometry x="1180" y="482" width="120" height="45" as="geometry" />
        </mxCell>
        <mxCell id="Pz1WyP6sGXRsh5Ih0FiO-36" value="" style="verticalLabelPosition=bottom;html=1;verticalAlign=top;align=center;shape=mxgraph.floorplan.sofa;rotation=-90;" parent="1" vertex="1">
          <mxGeometry x="1140" y="592" width="120" height="45" as="geometry" />
        </mxCell>
        <mxCell id="Pz1WyP6sGXRsh5Ih0FiO-38" value="" style="rounded=0;whiteSpace=wrap;html=1;" parent="1" vertex="1">
          <mxGeometry x="930" y="502" width="120" height="60" as="geometry" />
        </mxCell>
        <mxCell id="Pz1WyP6sGXRsh5Ih0FiO-40" value="" style="whiteSpace=wrap;html=1;aspect=fixed;" parent="1" vertex="1">
          <mxGeometry x="940" y="477" width="20" height="20" as="geometry" />
        </mxCell>
        <mxCell id="Pz1WyP6sGXRsh5Ih0FiO-41" value="" style="whiteSpace=wrap;html=1;aspect=fixed;" parent="1" vertex="1">
          <mxGeometry x="1010" y="477" width="20" height="20" as="geometry" />
        </mxCell>
        <mxCell id="Pz1WyP6sGXRsh5Ih0FiO-42" value="" style="whiteSpace=wrap;html=1;aspect=fixed;" parent="1" vertex="1">
          <mxGeometry x="1010" y="567" width="20" height="20" as="geometry" />
        </mxCell>
        <mxCell id="Pz1WyP6sGXRsh5Ih0FiO-45" value="" style="whiteSpace=wrap;html=1;aspect=fixed;" parent="1" vertex="1">
          <mxGeometry x="950" y="567" width="20" height="20" as="geometry" />
        </mxCell>
        <mxCell id="Pz1WyP6sGXRsh5Ih0FiO-46" value="" style="shape=mxgraph.signs.travel.coat_check;html=1;pointerEvents=1;fillColor=#000000;strokeColor=none;verticalLabelPosition=bottom;verticalAlign=top;align=center;" parent="1" vertex="1">
          <mxGeometry x="1420" y="712" width="20" height="30" as="geometry" />
        </mxCell>
        <mxCell id="HXqWQ5OlSbTPL7ygvsq--1" value="" style="rounded=0;whiteSpace=wrap;html=1;" parent="1" vertex="1">
          <mxGeometry x="246" y="879" width="1200" height="240" as="geometry" />
        </mxCell>
        <mxCell id="HXqWQ5OlSbTPL7ygvsq--2" value="" style="rounded=0;whiteSpace=wrap;html=1;" parent="1" vertex="1">
          <mxGeometry x="246" y="1439" width="1200" height="240" as="geometry" />
        </mxCell>
        <mxCell id="1PrPK5rhY788J8MFo_wC-4" value="" style="verticalLabelPosition=bottom;html=1;verticalAlign=top;align=center;shape=mxgraph.floorplan.doorOverhead;" parent="1" vertex="1">
          <mxGeometry x="382" y="1089" width="104" height="30" as="geometry" />
        </mxCell>
        <mxCell id="1PrPK5rhY788J8MFo_wC-6" value="" style="verticalLabelPosition=bottom;html=1;verticalAlign=top;align=center;shape=mxgraph.floorplan.doorOverhead;" parent="1" vertex="1">
          <mxGeometry x="622" y="1089" width="104" height="30" as="geometry" />
        </mxCell>
        <mxCell id="1PrPK5rhY788J8MFo_wC-7" value="" style="verticalLabelPosition=bottom;html=1;verticalAlign=top;align=center;shape=mxgraph.floorplan.doorOverhead;" parent="1" vertex="1">
          <mxGeometry x="562" y="859" width="104" height="30" as="geometry" />
        </mxCell>
        <mxCell id="1PrPK5rhY788J8MFo_wC-2" value="" style="verticalLabelPosition=bottom;html=1;verticalAlign=top;align=center;shape=mxgraph.floorplan.doorOverhead;" parent="1" vertex="1">
          <mxGeometry x="306" y="859" width="104" height="30" as="geometry" />
        </mxCell>
        <mxCell id="1PrPK5rhY788J8MFo_wC-8" value="" style="whiteSpace=wrap;html=1;aspect=fixed;" parent="1" vertex="1">
          <mxGeometry x="726" y="879" width="240" height="240" as="geometry" />
        </mxCell>
        <mxCell id="1PrPK5rhY788J8MFo_wC-9" value="" style="verticalLabelPosition=bottom;html=1;verticalAlign=top;align=center;shape=mxgraph.floorplan.doorOverhead;" parent="1" vertex="1">
          <mxGeometry x="862" y="1089" width="104" height="30" as="geometry" />
        </mxCell>
        <mxCell id="1PrPK5rhY788J8MFo_wC-10" value="" style="verticalLabelPosition=bottom;html=1;verticalAlign=top;align=center;shape=mxgraph.floorplan.doorOverhead;" parent="1" vertex="1">
          <mxGeometry x="802" y="859" width="104" height="30" as="geometry" />
        </mxCell>
        <mxCell id="1PrPK5rhY788J8MFo_wC-12" value="" style="verticalLabelPosition=bottom;html=1;verticalAlign=top;align=center;shape=mxgraph.floorplan.doorOverhead;" parent="1" vertex="1">
          <mxGeometry x="1102" y="1089" width="104" height="30" as="geometry" />
        </mxCell>
        <mxCell id="1PrPK5rhY788J8MFo_wC-13" value="" style="verticalLabelPosition=bottom;html=1;verticalAlign=top;align=center;shape=mxgraph.floorplan.doorOverhead;" parent="1" vertex="1">
          <mxGeometry x="1042" y="859" width="104" height="30" as="geometry" />
        </mxCell>
        <mxCell id="1PrPK5rhY788J8MFo_wC-15" value="" style="verticalLabelPosition=bottom;html=1;verticalAlign=top;align=center;shape=mxgraph.floorplan.doorOverhead;" parent="1" vertex="1">
          <mxGeometry x="1342" y="1089" width="104" height="30" as="geometry" />
        </mxCell>
        <mxCell id="1PrPK5rhY788J8MFo_wC-16" value="" style="verticalLabelPosition=bottom;html=1;verticalAlign=top;align=center;shape=mxgraph.floorplan.doorOverhead;" parent="1" vertex="1">
          <mxGeometry x="1282" y="859" width="104" height="30" as="geometry" />
        </mxCell>
        <mxCell id="1PrPK5rhY788J8MFo_wC-17" value="" style="whiteSpace=wrap;html=1;aspect=fixed;" parent="1" vertex="1">
          <mxGeometry x="246" y="1439" width="240" height="240" as="geometry" />
        </mxCell>
        <mxCell id="1PrPK5rhY788J8MFo_wC-18" value="" style="verticalLabelPosition=bottom;html=1;verticalAlign=top;align=center;shape=mxgraph.floorplan.doorOverhead;" parent="1" vertex="1">
          <mxGeometry x="306" y="1659" width="104" height="30" as="geometry" />
        </mxCell>
        <mxCell id="1PrPK5rhY788J8MFo_wC-19" value="" style="verticalLabelPosition=bottom;html=1;verticalAlign=top;align=center;shape=mxgraph.floorplan.doorOverhead;" parent="1" vertex="1">
          <mxGeometry x="382" y="1439" width="104" height="30" as="geometry" />
        </mxCell>
        <mxCell id="1PrPK5rhY788J8MFo_wC-20" value="" style="whiteSpace=wrap;html=1;aspect=fixed;" parent="1" vertex="1">
          <mxGeometry x="486" y="1439" width="240" height="240" as="geometry" />
        </mxCell>
        <mxCell id="1PrPK5rhY788J8MFo_wC-21" value="" style="verticalLabelPosition=bottom;html=1;verticalAlign=top;align=center;shape=mxgraph.floorplan.doorOverhead;" parent="1" vertex="1">
          <mxGeometry x="546" y="1659" width="104" height="30" as="geometry" />
        </mxCell>
        <mxCell id="1PrPK5rhY788J8MFo_wC-22" value="" style="verticalLabelPosition=bottom;html=1;verticalAlign=top;align=center;shape=mxgraph.floorplan.doorOverhead;" parent="1" vertex="1">
          <mxGeometry x="622" y="1439" width="104" height="30" as="geometry" />
        </mxCell>
        <mxCell id="1PrPK5rhY788J8MFo_wC-23" value="" style="whiteSpace=wrap;html=1;aspect=fixed;" parent="1" vertex="1">
          <mxGeometry x="726" y="1439" width="240" height="240" as="geometry" />
        </mxCell>
        <mxCell id="1PrPK5rhY788J8MFo_wC-26" value="" style="whiteSpace=wrap;html=1;aspect=fixed;" parent="1" vertex="1">
          <mxGeometry x="966" y="1439" width="240" height="240" as="geometry" />
        </mxCell>
        <mxCell id="1PrPK5rhY788J8MFo_wC-29" value="" style="whiteSpace=wrap;html=1;aspect=fixed;" parent="1" vertex="1">
          <mxGeometry x="1206" y="1439" width="240" height="240" as="geometry" />
        </mxCell>
        <mxCell id="1PrPK5rhY788J8MFo_wC-30" value="" style="verticalLabelPosition=bottom;html=1;verticalAlign=top;align=center;shape=mxgraph.floorplan.doorOverhead;" parent="1" vertex="1">
          <mxGeometry x="1266" y="1659" width="104" height="30" as="geometry" />
        </mxCell>
        <mxCell id="1PrPK5rhY788J8MFo_wC-31" value="" style="verticalLabelPosition=bottom;html=1;verticalAlign=top;align=center;shape=mxgraph.floorplan.doorOverhead;" parent="1" vertex="1">
          <mxGeometry x="1342" y="1439" width="104" height="30" as="geometry" />
        </mxCell>
        <mxCell id="1PrPK5rhY788J8MFo_wC-32" value="Wash Stall" style="text;html=1;align=center;verticalAlign=middle;whiteSpace=wrap;rounded=0;" parent="1" vertex="1">
          <mxGeometry x="1064" y="1524" width="60" height="30" as="geometry" />
        </mxCell>
        <mxCell id="1PrPK5rhY788J8MFo_wC-33" value="" style="verticalLabelPosition=bottom;html=1;verticalAlign=top;align=center;shape=mxgraph.floorplan.doorRight;aspect=fixed;" parent="1" vertex="1">
          <mxGeometry x="886" y="1439" width="80" height="85" as="geometry" />
        </mxCell>
        <mxCell id="1PrPK5rhY788J8MFo_wC-34" value="Tack Room" style="text;html=1;align=center;verticalAlign=middle;whiteSpace=wrap;rounded=0;" parent="1" vertex="1">
          <mxGeometry x="816" y="1539" width="60" height="30" as="geometry" />
        </mxCell>
        <mxCell id="1PrPK5rhY788J8MFo_wC-35" value="Utility&amp;nbsp;&lt;div&gt;Area&lt;/div&gt;" style="text;html=1;align=center;verticalAlign=middle;whiteSpace=wrap;rounded=0;" parent="1" vertex="1">
          <mxGeometry x="576" y="1539" width="60" height="30" as="geometry" />
        </mxCell>
        <mxCell id="1PrPK5rhY788J8MFo_wC-36" value="Solar" style="rounded=0;whiteSpace=wrap;html=1;" parent="1" vertex="1">
          <mxGeometry x="486" y="1569" width="70" height="70" as="geometry" />
        </mxCell>
        <mxCell id="1PrPK5rhY788J8MFo_wC-37" value="Water" style="rounded=0;whiteSpace=wrap;html=1;" parent="1" vertex="1">
          <mxGeometry x="496" y="1461.5" width="40" height="40" as="geometry" />
        </mxCell>
        <mxCell id="1PrPK5rhY788J8MFo_wC-39" value="Water&lt;br&gt;heater" style="rounded=0;whiteSpace=wrap;html=1;" parent="1" vertex="1">
          <mxGeometry x="496" y="1514" width="40" height="40" as="geometry" />
        </mxCell>
        <mxCell id="1PrPK5rhY788J8MFo_wC-41" value="Panel" style="rounded=0;whiteSpace=wrap;html=1;" parent="1" vertex="1">
          <mxGeometry x="486" y="1659" width="60" height="20" as="geometry" />
        </mxCell>
        <mxCell id="1PrPK5rhY788J8MFo_wC-42" value="" style="verticalLabelPosition=bottom;html=1;verticalAlign=top;align=center;shape=mxgraph.floorplan.doorSlidingGlass;dx=0.25;rotation=-90;" parent="1" vertex="1">
          <mxGeometry x="83.5" y="1271.5" width="325" height="10" as="geometry" />
        </mxCell>
        <mxCell id="1PrPK5rhY788J8MFo_wC-43" value="" style="verticalLabelPosition=bottom;html=1;verticalAlign=top;align=center;shape=mxgraph.floorplan.doorSlidingGlass;dx=0.25;rotation=-90;" parent="1" vertex="1">
          <mxGeometry x="1283.5" y="1271.5" width="325" height="10" as="geometry" />
        </mxCell>
        <mxCell id="1PrPK5rhY788J8MFo_wC-46" value="" style="shape=flexArrow;endArrow=classic;startArrow=classic;html=1;rounded=0;entryX=0;entryY=0.5;entryDx=0;entryDy=0;" parent="1" edge="1">
          <mxGeometry width="100" height="100" relative="1" as="geometry">
            <mxPoint x="625.9999999999998" y="330.0000000000001" as="sourcePoint" />
            <mxPoint x="730" y="330.0000000000001" as="targetPoint" />
          </mxGeometry>
        </mxCell>
        <mxCell id="1PrPK5rhY788J8MFo_wC-47" value="North" style="text;html=1;align=center;verticalAlign=middle;whiteSpace=wrap;rounded=0;" parent="1" vertex="1">
          <mxGeometry x="648" y="397" width="60" height="30" as="geometry" />
        </mxCell>
        <mxCell id="1PrPK5rhY788J8MFo_wC-48" value="South" style="text;html=1;align=center;verticalAlign=middle;whiteSpace=wrap;rounded=0;" parent="1" vertex="1">
          <mxGeometry x="654" y="250" width="60" height="30" as="geometry" />
        </mxCell>
        <mxCell id="1PrPK5rhY788J8MFo_wC-49" value="" style="shape=flexArrow;endArrow=classic;startArrow=classic;html=1;rounded=0;entryX=0.5;entryY=1;entryDx=0;entryDy=0;" parent="1" edge="1">
          <mxGeometry width="100" height="100" relative="1" as="geometry">
            <mxPoint x="677" y="380" as="sourcePoint" />
            <mxPoint x="677" y="280.0000000000001" as="targetPoint" />
          </mxGeometry>
        </mxCell>
        <mxCell id="1PrPK5rhY788J8MFo_wC-51" value="" style="whiteSpace=wrap;html=1;aspect=fixed;" parent="1" vertex="1">
          <mxGeometry x="312.5" y="240" width="40" height="40" as="geometry" />
        </mxCell>
        <mxCell id="1PrPK5rhY788J8MFo_wC-52" value="2 feet x 2 feet" style="text;html=1;align=center;verticalAlign=middle;whiteSpace=wrap;rounded=0;" parent="1" vertex="1">
          <mxGeometry x="365" y="240" width="60" height="30" as="geometry" />
        </mxCell>
        <mxCell id="1PrPK5rhY788J8MFo_wC-53" value="" style="verticalLabelPosition=bottom;html=1;verticalAlign=top;align=center;shape=mxgraph.floorplan.doorRight;aspect=fixed;" parent="1" vertex="1">
          <mxGeometry x="441.47" y="437" width="47.06" height="50" as="geometry" />
        </mxCell>
        <mxCell id="1PrPK5rhY788J8MFo_wC-60" value="" style="endArrow=none;dashed=1;html=1;dashPattern=1 3;strokeWidth=2;rounded=0;" parent="1" edge="1">
          <mxGeometry width="50" height="50" relative="1" as="geometry">
            <mxPoint x="478.95" y="1119" as="sourcePoint" />
            <mxPoint x="478.95" y="879" as="targetPoint" />
          </mxGeometry>
        </mxCell>
        <mxCell id="1PrPK5rhY788J8MFo_wC-61" value="" style="endArrow=none;dashed=1;html=1;dashPattern=1 3;strokeWidth=2;rounded=0;" parent="1" edge="1">
          <mxGeometry width="50" height="50" relative="1" as="geometry">
            <mxPoint x="1206" y="1114" as="sourcePoint" />
            <mxPoint x="1206" y="874" as="targetPoint" />
          </mxGeometry>
        </mxCell>
        <mxCell id="1PrPK5rhY788J8MFo_wC-62" value="" style="line;strokeWidth=1;rotatable=0;dashed=0;labelPosition=right;align=left;verticalAlign=middle;spacingTop=0;spacingLeft=6;points=[];portConstraint=eastwest;" parent="1" vertex="1">
          <mxGeometry x="200" y="800" width="1390" height="10" as="geometry" />
        </mxCell>
        <mxCell id="73Mp4HW7RY5cai5vXCNP-5" value="" style="shape=link;html=1;rounded=0;exitX=0.131;exitY=1;exitDx=0;exitDy=0;exitPerimeter=0;" parent="1" target="73Mp4HW7RY5cai5vXCNP-6" edge="1">
          <mxGeometry width="100" relative="1" as="geometry">
            <mxPoint x="495" y="1639" as="sourcePoint" />
            <mxPoint x="520" y="1760" as="targetPoint" />
          </mxGeometry>
        </mxCell>
        <mxCell id="73Mp4HW7RY5cai5vXCNP-6" value="&lt;h1 style=&quot;margin-top: 0px;&quot;&gt;&lt;font style=&quot;font-size: 12px;&quot;&gt;Conduit for electical link to/from house&lt;/font&gt;&lt;/h1&gt;" style="text;html=1;whiteSpace=wrap;overflow=hidden;rounded=0;strokeColor=default;" parent="1" vertex="1">
          <mxGeometry x="380" y="1700" width="230" height="60" as="geometry" />
        </mxCell>
        <mxCell id="zIE6sgV4vXfkruaz9dAc-3" value="" style="rounded=0;whiteSpace=wrap;html=1;" parent="1" vertex="1">
          <mxGeometry x="496" y="497" width="184" height="60" as="geometry" />
        </mxCell>
        <mxCell id="zIE6sgV4vXfkruaz9dAc-5" value="" style="verticalLabelPosition=bottom;html=1;verticalAlign=top;align=center;shape=mxgraph.floorplan.window;" parent="1" vertex="1">
          <mxGeometry x="340" y="430" width="100" height="10" as="geometry" />
        </mxCell>
        <mxCell id="nMXojul2NnLc9ZY-lyID-3" value="Generator&lt;div&gt;+&lt;/div&gt;&lt;div&gt;Pad&lt;/div&gt;" style="rounded=0;whiteSpace=wrap;html=1;" parent="1" vertex="1">
          <mxGeometry x="1520" y="622" width="60" height="90" as="geometry" />
        </mxCell>
        <mxCell id="nMXojul2NnLc9ZY-lyID-4" value="&amp;lt;-18&quot;-&amp;gt;" style="text;html=1;align=center;verticalAlign=middle;whiteSpace=wrap;rounded=0;rotation=0;" parent="1" vertex="1">
          <mxGeometry x="1470" y="652" width="50" height="30" as="geometry" />
        </mxCell>
        <mxCell id="nMXojul2NnLc9ZY-lyID-5" value="Service Panel" style="text;html=1;align=center;verticalAlign=middle;whiteSpace=wrap;rounded=0;rotation=90;" parent="1" vertex="1">
          <mxGeometry x="1570" y="642" width="60" height="30" as="geometry" />
        </mxCell>
        <mxCell id="nMXojul2NnLc9ZY-lyID-6" value="&lt;font style=&quot;font-size: 10px;&quot;&gt;Exhaust&amp;nbsp;&lt;/font&gt;&lt;span style=&quot;font-size: 10px; background-color: transparent; color: light-dark(rgb(0, 0, 0), rgb(255, 255, 255));&quot;&gt;Outlet&amp;nbsp;&lt;/span&gt;&lt;div&gt;&lt;font style=&quot;font-size: 10px;&quot;&gt;4 feet&lt;/font&gt;&lt;/div&gt;" style="text;html=1;align=center;verticalAlign=middle;whiteSpace=wrap;rounded=0;" parent="1" vertex="1">
          <mxGeometry x="1500" y="712" width="94" height="30" as="geometry" />
        </mxCell>
        <mxCell id="nMXojul2NnLc9ZY-lyID-8" value="Generator&lt;div&gt;+&lt;/div&gt;&lt;div&gt;Pad&lt;/div&gt;" style="rounded=0;whiteSpace=wrap;html=1;" parent="1" vertex="1">
          <mxGeometry x="1492" y="1449" width="60" height="90" as="geometry" />
        </mxCell>
        <mxCell id="nMXojul2NnLc9ZY-lyID-9" value="&amp;lt;-18&quot;-&amp;gt;" style="text;html=1;align=center;verticalAlign=middle;whiteSpace=wrap;rounded=0;rotation=0;" parent="1" vertex="1">
          <mxGeometry x="1442" y="1479" width="50" height="30" as="geometry" />
        </mxCell>
        <mxCell id="nMXojul2NnLc9ZY-lyID-10" value="Service Panel" style="text;html=1;align=center;verticalAlign=middle;whiteSpace=wrap;rounded=0;rotation=90;" parent="1" vertex="1">
          <mxGeometry x="1542" y="1469" width="60" height="30" as="geometry" />
        </mxCell>
        <mxCell id="nMXojul2NnLc9ZY-lyID-11" value="&lt;font style=&quot;font-size: 10px;&quot;&gt;Exhaust&amp;nbsp;&lt;/font&gt;&lt;span style=&quot;font-size: 10px; background-color: transparent; color: light-dark(rgb(0, 0, 0), rgb(255, 255, 255));&quot;&gt;Outlet&amp;nbsp;&lt;/span&gt;&lt;div&gt;&lt;font style=&quot;font-size: 10px;&quot;&gt;4 feet&lt;/font&gt;&lt;/div&gt;" style="text;html=1;align=center;verticalAlign=middle;whiteSpace=wrap;rounded=0;" parent="1" vertex="1">
          <mxGeometry x="1472" y="1539" width="94" height="30" as="geometry" />
        </mxCell>
        <mxCell id="DPbvwi8prOoyAqnCiAyx-1" value="" style="html=1;verticalLabelPosition=bottom;align=center;labelBackgroundColor=#ffffff;verticalAlign=top;strokeWidth=2;strokeColor=#0080F0;shadow=0;dashed=0;shape=mxgraph.ios7.icons.lightbulb;" vertex="1" parent="1">
          <mxGeometry x="355" y="985" width="22.8" height="29.7" as="geometry" />
        </mxCell>
        <mxCell id="DPbvwi8prOoyAqnCiAyx-2" value="" style="html=1;verticalLabelPosition=bottom;align=center;labelBackgroundColor=#ffffff;verticalAlign=top;strokeWidth=2;strokeColor=#0080F0;shadow=0;dashed=0;shape=mxgraph.ios7.icons.lightbulb;" vertex="1" parent="1">
          <mxGeometry x="595" y="985" width="22.8" height="29.7" as="geometry" />
        </mxCell>
        <mxCell id="DPbvwi8prOoyAqnCiAyx-3" value="" style="html=1;verticalLabelPosition=bottom;align=center;labelBackgroundColor=#ffffff;verticalAlign=top;strokeWidth=2;strokeColor=#0080F0;shadow=0;dashed=0;shape=mxgraph.ios7.icons.lightbulb;" vertex="1" parent="1">
          <mxGeometry x="1314.6" y="980" width="22.8" height="29.7" as="geometry" />
        </mxCell>
        <mxCell id="DPbvwi8prOoyAqnCiAyx-4" value="" style="html=1;verticalLabelPosition=bottom;align=center;labelBackgroundColor=#ffffff;verticalAlign=top;strokeWidth=2;strokeColor=#0080F0;shadow=0;dashed=0;shape=mxgraph.ios7.icons.lightbulb;" vertex="1" parent="1">
          <mxGeometry x="1074.6" y="980" width="22.8" height="29.7" as="geometry" />
        </mxCell>
        <mxCell id="DPbvwi8prOoyAqnCiAyx-5" value="" style="html=1;verticalLabelPosition=bottom;align=center;labelBackgroundColor=#ffffff;verticalAlign=top;strokeWidth=2;strokeColor=#0080F0;shadow=0;dashed=0;shape=mxgraph.ios7.icons.lightbulb;" vertex="1" parent="1">
          <mxGeometry x="829.7" y="984.15" width="22.8" height="29.7" as="geometry" />
        </mxCell>
        <mxCell id="DPbvwi8prOoyAqnCiAyx-6" value="" style="html=1;verticalLabelPosition=bottom;align=center;labelBackgroundColor=#ffffff;verticalAlign=top;strokeWidth=2;strokeColor=#0080F0;shadow=0;dashed=0;shape=mxgraph.ios7.icons.lightbulb;" vertex="1" parent="1">
          <mxGeometry x="1300" y="1540" width="22.8" height="29.7" as="geometry" />
        </mxCell>
        <mxCell id="DPbvwi8prOoyAqnCiAyx-7" value="" style="html=1;verticalLabelPosition=bottom;align=center;labelBackgroundColor=#ffffff;verticalAlign=top;strokeWidth=2;strokeColor=#0080F0;shadow=0;dashed=0;shape=mxgraph.ios7.icons.lightbulb;" vertex="1" parent="1">
          <mxGeometry x="1074.6" y="1544.15" width="22.8" height="29.7" as="geometry" />
        </mxCell>
        <mxCell id="DPbvwi8prOoyAqnCiAyx-8" value="" style="html=1;verticalLabelPosition=bottom;align=center;labelBackgroundColor=#ffffff;verticalAlign=top;strokeWidth=2;strokeColor=#0080F0;shadow=0;dashed=0;shape=mxgraph.ios7.icons.lightbulb;" vertex="1" parent="1">
          <mxGeometry x="804" y="1539" width="22.8" height="29.7" as="geometry" />
        </mxCell>
        <mxCell id="DPbvwi8prOoyAqnCiAyx-9" value="" style="html=1;verticalLabelPosition=bottom;align=center;labelBackgroundColor=#ffffff;verticalAlign=top;strokeWidth=2;strokeColor=#0080F0;shadow=0;dashed=0;shape=mxgraph.ios7.icons.lightbulb;" vertex="1" parent="1">
          <mxGeometry x="622.2" y="1539.3" width="22.8" height="29.7" as="geometry" />
        </mxCell>
        <mxCell id="DPbvwi8prOoyAqnCiAyx-10" value="" style="html=1;verticalLabelPosition=bottom;align=center;labelBackgroundColor=#ffffff;verticalAlign=top;strokeWidth=2;strokeColor=#0080F0;shadow=0;dashed=0;shape=mxgraph.ios7.icons.lightbulb;" vertex="1" parent="1">
          <mxGeometry x="352.5" y="1544.15" width="22.8" height="29.7" as="geometry" />
        </mxCell>
        <mxCell id="DPbvwi8prOoyAqnCiAyx-11" value="" style="html=1;verticalLabelPosition=bottom;align=center;labelBackgroundColor=#ffffff;verticalAlign=top;strokeWidth=2;strokeColor=#0080F0;shadow=0;dashed=0;shape=mxgraph.ios7.icons.lightbulb;" vertex="1" parent="1">
          <mxGeometry x="365" y="1272" width="22.8" height="29.7" as="geometry" />
        </mxCell>
        <mxCell id="DPbvwi8prOoyAqnCiAyx-12" value="" style="html=1;verticalLabelPosition=bottom;align=center;labelBackgroundColor=#ffffff;verticalAlign=top;strokeWidth=2;strokeColor=#0080F0;shadow=0;dashed=0;shape=mxgraph.ios7.icons.lightbulb;" vertex="1" parent="1">
          <mxGeometry x="584" y="1262" width="22.8" height="29.7" as="geometry" />
        </mxCell>
        <mxCell id="DPbvwi8prOoyAqnCiAyx-13" value="" style="html=1;verticalLabelPosition=bottom;align=center;labelBackgroundColor=#ffffff;verticalAlign=top;strokeWidth=2;strokeColor=#0080F0;shadow=0;dashed=0;shape=mxgraph.ios7.icons.lightbulb;" vertex="1" parent="1">
          <mxGeometry x="840" y="1263" width="22.8" height="29.7" as="geometry" />
        </mxCell>
        <mxCell id="DPbvwi8prOoyAqnCiAyx-14" value="" style="html=1;verticalLabelPosition=bottom;align=center;labelBackgroundColor=#ffffff;verticalAlign=top;strokeWidth=2;strokeColor=#0080F0;shadow=0;dashed=0;shape=mxgraph.ios7.icons.lightbulb;" vertex="1" parent="1">
          <mxGeometry x="1070" y="1264" width="22.8" height="29.7" as="geometry" />
        </mxCell>
        <mxCell id="DPbvwi8prOoyAqnCiAyx-15" value="" style="html=1;verticalLabelPosition=bottom;align=center;labelBackgroundColor=#ffffff;verticalAlign=top;strokeWidth=2;strokeColor=#0080F0;shadow=0;dashed=0;shape=mxgraph.ios7.icons.lightbulb;" vertex="1" parent="1">
          <mxGeometry x="1320" y="1265" width="22.8" height="29.7" as="geometry" />
        </mxCell>
        <mxCell id="DPbvwi8prOoyAqnCiAyx-16" value="" style="dashed=0;labelPosition=right;align=left;shape=mxgraph.gmdl.switch;aspect=fixed;switchState=on;strokeColor=none;fillColor=#0E9D57;sketch=0;html=1;" vertex="1" parent="1">
          <mxGeometry x="254" y="1410" width="36" height="20" as="geometry" />
        </mxCell>
        <mxCell id="DPbvwi8prOoyAqnCiAyx-17" value="" style="dashed=0;labelPosition=right;align=left;shape=mxgraph.gmdl.switch;aspect=fixed;switchState=on;strokeColor=none;fillColor=#0E9D57;sketch=0;html=1;" vertex="1" parent="1">
          <mxGeometry x="1390" y="1119" width="36" height="20" as="geometry" />
        </mxCell>
        <mxCell id="DPbvwi8prOoyAqnCiAyx-18" style="edgeStyle=orthogonalEdgeStyle;rounded=0;orthogonalLoop=1;jettySize=auto;html=1;entryX=0.09;entryY=-0.012;entryDx=0;entryDy=0;entryPerimeter=0;" edge="1" parent="1" source="DPbvwi8prOoyAqnCiAyx-11" target="1PrPK5rhY788J8MFo_wC-17">
          <mxGeometry relative="1" as="geometry" />
        </mxCell>
        <mxCell id="DPbvwi8prOoyAqnCiAyx-19" style="edgeStyle=orthogonalEdgeStyle;rounded=0;orthogonalLoop=1;jettySize=auto;html=1;entryX=0.404;entryY=0.256;entryDx=0;entryDy=0;entryPerimeter=0;" edge="1" parent="1" source="DPbvwi8prOoyAqnCiAyx-11" target="DPbvwi8prOoyAqnCiAyx-13">
          <mxGeometry relative="1" as="geometry" />
        </mxCell>
        <mxCell id="DPbvwi8prOoyAqnCiAyx-20" style="edgeStyle=orthogonalEdgeStyle;rounded=0;orthogonalLoop=1;jettySize=auto;html=1;entryX=0.175;entryY=0.626;entryDx=0;entryDy=0;entryPerimeter=0;" edge="1" parent="1" source="DPbvwi8prOoyAqnCiAyx-13" target="DPbvwi8prOoyAqnCiAyx-14">
          <mxGeometry relative="1" as="geometry" />
        </mxCell>
        <mxCell id="DPbvwi8prOoyAqnCiAyx-21" style="edgeStyle=orthogonalEdgeStyle;rounded=0;orthogonalLoop=1;jettySize=auto;html=1;entryX=0.018;entryY=0.512;entryDx=0;entryDy=0;entryPerimeter=0;" edge="1" parent="1" source="DPbvwi8prOoyAqnCiAyx-14" target="DPbvwi8prOoyAqnCiAyx-15">
          <mxGeometry relative="1" as="geometry" />
        </mxCell>
        <mxCell id="DPbvwi8prOoyAqnCiAyx-22" style="edgeStyle=orthogonalEdgeStyle;rounded=0;orthogonalLoop=1;jettySize=auto;html=1;entryX=0.511;entryY=0.74;entryDx=0;entryDy=0;entryPerimeter=0;" edge="1" parent="1" source="DPbvwi8prOoyAqnCiAyx-15" target="DPbvwi8prOoyAqnCiAyx-17">
          <mxGeometry relative="1" as="geometry" />
        </mxCell>
        <mxCell id="DPbvwi8prOoyAqnCiAyx-27" value="" style="dashed=0;labelPosition=right;align=left;shape=mxgraph.gmdl.switch;aspect=fixed;switchState=on;strokeColor=none;fillColor=#0E9D57;sketch=0;html=1;" vertex="1" parent="1">
          <mxGeometry x="754" y="1419" width="36" height="20" as="geometry" />
        </mxCell>
        <mxCell id="DPbvwi8prOoyAqnCiAyx-28" value="" style="html=1;verticalLabelPosition=bottom;align=center;labelBackgroundColor=#ffffff;verticalAlign=top;strokeWidth=2;strokeColor=#0080F0;shadow=0;dashed=0;shape=mxgraph.ios7.icons.lightbulb;" vertex="1" parent="1">
          <mxGeometry x="210" y="1059.3" width="22.8" height="29.7" as="geometry" />
        </mxCell>
        <mxCell id="DPbvwi8prOoyAqnCiAyx-29" value="" style="html=1;verticalLabelPosition=bottom;align=center;labelBackgroundColor=#ffffff;verticalAlign=top;strokeWidth=2;strokeColor=#0080F0;shadow=0;dashed=0;shape=mxgraph.ios7.icons.lightbulb;" vertex="1" parent="1">
          <mxGeometry x="210" y="1460" width="22.8" height="29.7" as="geometry" />
        </mxCell>
        <mxCell id="DPbvwi8prOoyAqnCiAyx-30" value="" style="html=1;verticalLabelPosition=bottom;align=center;labelBackgroundColor=#ffffff;verticalAlign=top;strokeWidth=2;strokeColor=#0080F0;shadow=0;dashed=0;shape=mxgraph.ios7.icons.lightbulb;" vertex="1" parent="1">
          <mxGeometry x="1450" y="1060" width="22.8" height="29.7" as="geometry" />
        </mxCell>
        <mxCell id="DPbvwi8prOoyAqnCiAyx-31" value="" style="html=1;verticalLabelPosition=bottom;align=center;labelBackgroundColor=#ffffff;verticalAlign=top;strokeWidth=2;strokeColor=#0080F0;shadow=0;dashed=0;shape=mxgraph.ios7.icons.lightbulb;" vertex="1" parent="1">
          <mxGeometry x="1450" y="1460" width="22.8" height="29.7" as="geometry" />
        </mxCell>
        <mxCell id="DPbvwi8prOoyAqnCiAyx-32" value="" style="html=1;verticalLabelPosition=bottom;align=center;labelBackgroundColor=#ffffff;verticalAlign=top;strokeWidth=2;strokeColor=#0080F0;shadow=0;dashed=0;shape=mxgraph.ios7.icons.lightbulb;" vertex="1" parent="1">
          <mxGeometry x="1237.2" y="1689" width="22.8" height="29.7" as="geometry" />
        </mxCell>
        <mxCell id="DPbvwi8prOoyAqnCiAyx-33" value="" style="html=1;verticalLabelPosition=bottom;align=center;labelBackgroundColor=#ffffff;verticalAlign=top;strokeWidth=2;strokeColor=#0080F0;shadow=0;dashed=0;shape=mxgraph.ios7.icons.lightbulb;" vertex="1" parent="1">
          <mxGeometry x="829.7" y="1689" width="22.8" height="29.7" as="geometry" />
        </mxCell>
        <mxCell id="DPbvwi8prOoyAqnCiAyx-34" value="" style="html=1;verticalLabelPosition=bottom;align=center;labelBackgroundColor=#ffffff;verticalAlign=top;strokeWidth=2;strokeColor=#0080F0;shadow=0;dashed=0;shape=mxgraph.ios7.icons.lightbulb;" vertex="1" parent="1">
          <mxGeometry x="473.2" y="1689" width="22.8" height="29.7" as="geometry" />
        </mxCell>
        <mxCell id="DPbvwi8prOoyAqnCiAyx-35" value="" style="html=1;verticalLabelPosition=bottom;align=center;labelBackgroundColor=#ffffff;verticalAlign=top;strokeWidth=2;strokeColor=#0080F0;shadow=0;dashed=0;shape=mxgraph.ios7.icons.lightbulb;" vertex="1" parent="1">
          <mxGeometry x="513.2" y="840" width="22.8" height="29.7" as="geometry" />
        </mxCell>
        <mxCell id="DPbvwi8prOoyAqnCiAyx-36" value="" style="html=1;verticalLabelPosition=bottom;align=center;labelBackgroundColor=#ffffff;verticalAlign=top;strokeWidth=2;strokeColor=#0080F0;shadow=0;dashed=0;shape=mxgraph.ios7.icons.lightbulb;" vertex="1" parent="1">
          <mxGeometry x="834.6" y="849.3" width="22.8" height="29.7" as="geometry" />
        </mxCell>
        <mxCell id="DPbvwi8prOoyAqnCiAyx-37" value="" style="html=1;verticalLabelPosition=bottom;align=center;labelBackgroundColor=#ffffff;verticalAlign=top;strokeWidth=2;strokeColor=#0080F0;shadow=0;dashed=0;shape=mxgraph.ios7.icons.lightbulb;" vertex="1" parent="1">
          <mxGeometry x="1243.2" y="849.3" width="22.8" height="29.7" as="geometry" />
        </mxCell>
        <mxCell id="DPbvwi8prOoyAqnCiAyx-38" value="" style="html=1;verticalLabelPosition=bottom;align=center;labelBackgroundColor=#ffffff;verticalAlign=top;strokeWidth=2;strokeColor=#0080F0;shadow=0;dashed=0;shape=mxgraph.ios7.icons.lightbulb;" vertex="1" parent="1">
          <mxGeometry x="1492" y="507.3" width="22.8" height="29.7" as="geometry" />
        </mxCell>
        <mxCell id="DPbvwi8prOoyAqnCiAyx-39" value="" style="html=1;verticalLabelPosition=bottom;align=center;labelBackgroundColor=#ffffff;verticalAlign=top;strokeWidth=2;strokeColor=#0080F0;shadow=0;dashed=0;shape=mxgraph.ios7.icons.lightbulb;" vertex="1" parent="1">
          <mxGeometry x="1497.2" y="734.3" width="22.8" height="29.7" as="geometry" />
        </mxCell>
        <mxCell id="DPbvwi8prOoyAqnCiAyx-40" value="" style="html=1;verticalLabelPosition=bottom;align=center;labelBackgroundColor=#ffffff;verticalAlign=top;strokeWidth=2;strokeColor=#0080F0;shadow=0;dashed=0;shape=mxgraph.ios7.icons.lightbulb;" vertex="1" parent="1">
          <mxGeometry x="1490" y="617" width="22.8" height="29.7" as="geometry" />
        </mxCell>
      </root>
    </mxGraphModel>
  </diagram>
  <diagram id="TgK1CNr3U8DrRb7wL3EL" name="Page-2">
    <mxGraphModel dx="2404" dy="898" grid="1" gridSize="10" guides="1" tooltips="1" connect="1" arrows="1" fold="1" page="1" pageScale="1" pageWidth="850" pageHeight="1100" math="0" shadow="0">
      <root>
        <mxCell id="0" />
        <mxCell id="1" parent="0" />
        <mxCell id="zMu5SDd8Gfc6-KTva-LD-58" value="" style="ellipse;whiteSpace=wrap;html=1;fillColor=#647687;fontColor=#ffffff;strokeColor=none;" vertex="1" parent="1">
          <mxGeometry x="60" y="480" width="450" height="270" as="geometry" />
        </mxCell>
        <mxCell id="zMu5SDd8Gfc6-KTva-LD-1" value="West" style="text;html=1;align=center;verticalAlign=middle;whiteSpace=wrap;rounded=0;" vertex="1" parent="1">
          <mxGeometry x="634" y="82.5" width="60" height="30" as="geometry" />
        </mxCell>
        <mxCell id="zMu5SDd8Gfc6-KTva-LD-2" value="East" style="text;html=1;align=center;verticalAlign=middle;whiteSpace=wrap;rounded=0;" vertex="1" parent="1">
          <mxGeometry x="460" y="80" width="60" height="30" as="geometry" />
        </mxCell>
        <mxCell id="zMu5SDd8Gfc6-KTva-LD-3" value="" style="shape=flexArrow;endArrow=classic;startArrow=classic;html=1;rounded=0;entryX=0;entryY=0.5;entryDx=0;entryDy=0;" edge="1" parent="1">
          <mxGeometry width="100" height="100" relative="1" as="geometry">
            <mxPoint x="529.9999999999998" y="94.50000000000011" as="sourcePoint" />
            <mxPoint x="634" y="94.50000000000011" as="targetPoint" />
          </mxGeometry>
        </mxCell>
        <mxCell id="zMu5SDd8Gfc6-KTva-LD-4" value="North" style="text;html=1;align=center;verticalAlign=middle;whiteSpace=wrap;rounded=0;" vertex="1" parent="1">
          <mxGeometry x="552" y="161.5" width="60" height="30" as="geometry" />
        </mxCell>
        <mxCell id="zMu5SDd8Gfc6-KTva-LD-5" value="South" style="text;html=1;align=center;verticalAlign=middle;whiteSpace=wrap;rounded=0;" vertex="1" parent="1">
          <mxGeometry x="558" y="14.5" width="60" height="30" as="geometry" />
        </mxCell>
        <mxCell id="zMu5SDd8Gfc6-KTva-LD-6" value="" style="shape=flexArrow;endArrow=classic;startArrow=classic;html=1;rounded=0;entryX=0.5;entryY=1;entryDx=0;entryDy=0;" edge="1" parent="1">
          <mxGeometry width="100" height="100" relative="1" as="geometry">
            <mxPoint x="581" y="144.5" as="sourcePoint" />
            <mxPoint x="581" y="44.500000000000114" as="targetPoint" />
          </mxGeometry>
        </mxCell>
        <mxCell id="zMu5SDd8Gfc6-KTva-LD-7" value="" style="whiteSpace=wrap;html=1;aspect=fixed;" vertex="1" parent="1">
          <mxGeometry x="70" y="30" width="10" height="10" as="geometry" />
        </mxCell>
        <mxCell id="zMu5SDd8Gfc6-KTva-LD-8" value="2 feet x 2 feet" style="text;html=1;align=center;verticalAlign=middle;whiteSpace=wrap;rounded=0;" vertex="1" parent="1">
          <mxGeometry x="82.5" y="30" width="60" height="30" as="geometry" />
        </mxCell>
        <mxCell id="zMu5SDd8Gfc6-KTva-LD-10" value="" style="rounded=0;whiteSpace=wrap;html=1;" vertex="1" parent="1">
          <mxGeometry x="120" y="280" width="310" height="80" as="geometry" />
        </mxCell>
        <mxCell id="zMu5SDd8Gfc6-KTva-LD-12" value="" style="rounded=0;whiteSpace=wrap;html=1;" vertex="1" parent="1">
          <mxGeometry x="120" y="180" width="310" height="100" as="geometry" />
        </mxCell>
        <mxCell id="zMu5SDd8Gfc6-KTva-LD-13" value="" style="rounded=0;whiteSpace=wrap;html=1;" vertex="1" parent="1">
          <mxGeometry x="120" y="360" width="310" height="100" as="geometry" />
        </mxCell>
        <mxCell id="zMu5SDd8Gfc6-KTva-LD-14" value="" style="endArrow=none;dashed=1;html=1;dashPattern=1 3;strokeWidth=2;rounded=0;exitX=0;exitY=0.5;exitDx=0;exitDy=0;" edge="1" parent="1" source="zMu5SDd8Gfc6-KTva-LD-10">
          <mxGeometry width="50" height="50" relative="1" as="geometry">
            <mxPoint x="390" y="370" as="sourcePoint" />
            <mxPoint x="430" y="320" as="targetPoint" />
          </mxGeometry>
        </mxCell>
        <mxCell id="zMu5SDd8Gfc6-KTva-LD-15" value="" style="html=1;verticalLabelPosition=bottom;align=center;labelBackgroundColor=#ffffff;verticalAlign=top;strokeWidth=2;strokeColor=#0080F0;shadow=0;dashed=0;shape=mxgraph.ios7.icons.location_2;" vertex="1" parent="1">
          <mxGeometry x="260" y="305" width="30" height="30" as="geometry" />
        </mxCell>
        <mxCell id="zMu5SDd8Gfc6-KTva-LD-17" value="" style="whiteSpace=wrap;html=1;aspect=fixed;fillColor=#4D4D4D;" vertex="1" parent="1">
          <mxGeometry x="137" y="236" width="23" height="23" as="geometry" />
        </mxCell>
        <mxCell id="zMu5SDd8Gfc6-KTva-LD-18" value="" style="whiteSpace=wrap;html=1;aspect=fixed;fillColor=#4D4D4D;" vertex="1" parent="1">
          <mxGeometry x="137" y="213" width="23" height="23" as="geometry" />
        </mxCell>
        <mxCell id="zMu5SDd8Gfc6-KTva-LD-19" value="" style="whiteSpace=wrap;html=1;aspect=fixed;fillColor=#4D4D4D;" vertex="1" parent="1">
          <mxGeometry x="137" y="190" width="23" height="23" as="geometry" />
        </mxCell>
        <mxCell id="zMu5SDd8Gfc6-KTva-LD-21" value="" style="whiteSpace=wrap;html=1;aspect=fixed;fillColor=#4D4D4D;" vertex="1" parent="1">
          <mxGeometry x="160" y="213" width="23" height="23" as="geometry" />
        </mxCell>
        <mxCell id="zMu5SDd8Gfc6-KTva-LD-22" value="" style="whiteSpace=wrap;html=1;aspect=fixed;fillColor=#4D4D4D;" vertex="1" parent="1">
          <mxGeometry x="160" y="190" width="23" height="23" as="geometry" />
        </mxCell>
        <mxCell id="zMu5SDd8Gfc6-KTva-LD-23" value="" style="whiteSpace=wrap;html=1;aspect=fixed;fillColor=#4D4D4D;" vertex="1" parent="1">
          <mxGeometry x="183" y="236" width="23" height="23" as="geometry" />
        </mxCell>
        <mxCell id="zMu5SDd8Gfc6-KTva-LD-24" value="" style="whiteSpace=wrap;html=1;aspect=fixed;fillColor=#4D4D4D;" vertex="1" parent="1">
          <mxGeometry x="183" y="213" width="23" height="23" as="geometry" />
        </mxCell>
        <mxCell id="zMu5SDd8Gfc6-KTva-LD-25" value="" style="whiteSpace=wrap;html=1;aspect=fixed;fillColor=#4D4D4D;" vertex="1" parent="1">
          <mxGeometry x="183" y="190" width="23" height="23" as="geometry" />
        </mxCell>
        <mxCell id="zMu5SDd8Gfc6-KTva-LD-26" value="" style="whiteSpace=wrap;html=1;aspect=fixed;fillColor=#4D4D4D;" vertex="1" parent="1">
          <mxGeometry x="206" y="236" width="23" height="23" as="geometry" />
        </mxCell>
        <mxCell id="zMu5SDd8Gfc6-KTva-LD-27" value="" style="whiteSpace=wrap;html=1;aspect=fixed;fillColor=#4D4D4D;" vertex="1" parent="1">
          <mxGeometry x="206" y="213" width="23" height="23" as="geometry" />
        </mxCell>
        <mxCell id="zMu5SDd8Gfc6-KTva-LD-28" value="" style="whiteSpace=wrap;html=1;aspect=fixed;fillColor=#4D4D4D;" vertex="1" parent="1">
          <mxGeometry x="206" y="190" width="23" height="23" as="geometry" />
        </mxCell>
        <mxCell id="zMu5SDd8Gfc6-KTva-LD-29" value="" style="whiteSpace=wrap;html=1;aspect=fixed;fillColor=#4D4D4D;" vertex="1" parent="1">
          <mxGeometry x="229" y="236" width="23" height="23" as="geometry" />
        </mxCell>
        <mxCell id="zMu5SDd8Gfc6-KTva-LD-30" value="" style="whiteSpace=wrap;html=1;aspect=fixed;fillColor=#4D4D4D;" vertex="1" parent="1">
          <mxGeometry x="229" y="213" width="23" height="23" as="geometry" />
        </mxCell>
        <mxCell id="zMu5SDd8Gfc6-KTva-LD-31" value="" style="whiteSpace=wrap;html=1;aspect=fixed;fillColor=#4D4D4D;" vertex="1" parent="1">
          <mxGeometry x="229" y="190" width="23" height="23" as="geometry" />
        </mxCell>
        <mxCell id="zMu5SDd8Gfc6-KTva-LD-33" value="" style="whiteSpace=wrap;html=1;aspect=fixed;fillColor=#4D4D4D;" vertex="1" parent="1">
          <mxGeometry x="252" y="213" width="23" height="23" as="geometry" />
        </mxCell>
        <mxCell id="zMu5SDd8Gfc6-KTva-LD-34" value="" style="whiteSpace=wrap;html=1;aspect=fixed;fillColor=#4D4D4D;" vertex="1" parent="1">
          <mxGeometry x="252" y="190" width="23" height="23" as="geometry" />
        </mxCell>
        <mxCell id="zMu5SDd8Gfc6-KTva-LD-35" value="" style="whiteSpace=wrap;html=1;aspect=fixed;fillColor=#4D4D4D;" vertex="1" parent="1">
          <mxGeometry x="275" y="236" width="23" height="23" as="geometry" />
        </mxCell>
        <mxCell id="zMu5SDd8Gfc6-KTva-LD-36" value="" style="whiteSpace=wrap;html=1;aspect=fixed;fillColor=#4D4D4D;" vertex="1" parent="1">
          <mxGeometry x="275" y="213" width="23" height="23" as="geometry" />
        </mxCell>
        <mxCell id="zMu5SDd8Gfc6-KTva-LD-37" value="" style="whiteSpace=wrap;html=1;aspect=fixed;fillColor=#4D4D4D;" vertex="1" parent="1">
          <mxGeometry x="275" y="190" width="23" height="23" as="geometry" />
        </mxCell>
        <mxCell id="zMu5SDd8Gfc6-KTva-LD-38" value="" style="whiteSpace=wrap;html=1;aspect=fixed;fillColor=#4D4D4D;" vertex="1" parent="1">
          <mxGeometry x="298" y="236" width="23" height="23" as="geometry" />
        </mxCell>
        <mxCell id="zMu5SDd8Gfc6-KTva-LD-39" value="" style="whiteSpace=wrap;html=1;aspect=fixed;fillColor=#4D4D4D;" vertex="1" parent="1">
          <mxGeometry x="298" y="213" width="23" height="23" as="geometry" />
        </mxCell>
        <mxCell id="zMu5SDd8Gfc6-KTva-LD-40" value="" style="whiteSpace=wrap;html=1;aspect=fixed;fillColor=#4D4D4D;" vertex="1" parent="1">
          <mxGeometry x="298" y="190" width="23" height="23" as="geometry" />
        </mxCell>
        <mxCell id="zMu5SDd8Gfc6-KTva-LD-41" value="" style="whiteSpace=wrap;html=1;aspect=fixed;fillColor=#4D4D4D;" vertex="1" parent="1">
          <mxGeometry x="321" y="236" width="23" height="23" as="geometry" />
        </mxCell>
        <mxCell id="zMu5SDd8Gfc6-KTva-LD-42" value="" style="whiteSpace=wrap;html=1;aspect=fixed;fillColor=#4D4D4D;" vertex="1" parent="1">
          <mxGeometry x="321" y="213" width="23" height="23" as="geometry" />
        </mxCell>
        <mxCell id="zMu5SDd8Gfc6-KTva-LD-43" value="" style="whiteSpace=wrap;html=1;aspect=fixed;fillColor=#4D4D4D;" vertex="1" parent="1">
          <mxGeometry x="321" y="190" width="23" height="23" as="geometry" />
        </mxCell>
        <mxCell id="zMu5SDd8Gfc6-KTva-LD-45" value="" style="whiteSpace=wrap;html=1;aspect=fixed;fillColor=#4D4D4D;" vertex="1" parent="1">
          <mxGeometry x="344" y="213" width="23" height="23" as="geometry" />
        </mxCell>
        <mxCell id="zMu5SDd8Gfc6-KTva-LD-46" value="" style="whiteSpace=wrap;html=1;aspect=fixed;fillColor=#4D4D4D;" vertex="1" parent="1">
          <mxGeometry x="344" y="190" width="23" height="23" as="geometry" />
        </mxCell>
        <mxCell id="zMu5SDd8Gfc6-KTva-LD-47" value="" style="whiteSpace=wrap;html=1;aspect=fixed;fillColor=#4D4D4D;" vertex="1" parent="1">
          <mxGeometry x="367" y="236" width="23" height="23" as="geometry" />
        </mxCell>
        <mxCell id="zMu5SDd8Gfc6-KTva-LD-48" value="" style="whiteSpace=wrap;html=1;aspect=fixed;fillColor=#4D4D4D;" vertex="1" parent="1">
          <mxGeometry x="367" y="213" width="23" height="23" as="geometry" />
        </mxCell>
        <mxCell id="zMu5SDd8Gfc6-KTva-LD-49" value="" style="whiteSpace=wrap;html=1;aspect=fixed;fillColor=#4D4D4D;" vertex="1" parent="1">
          <mxGeometry x="367" y="190" width="23" height="23" as="geometry" />
        </mxCell>
        <mxCell id="zMu5SDd8Gfc6-KTva-LD-50" value="" style="whiteSpace=wrap;html=1;aspect=fixed;fillColor=#4D4D4D;" vertex="1" parent="1">
          <mxGeometry x="390" y="236" width="23" height="23" as="geometry" />
        </mxCell>
        <mxCell id="zMu5SDd8Gfc6-KTva-LD-51" value="" style="whiteSpace=wrap;html=1;aspect=fixed;fillColor=#4D4D4D;" vertex="1" parent="1">
          <mxGeometry x="390" y="213" width="23" height="23" as="geometry" />
        </mxCell>
        <mxCell id="zMu5SDd8Gfc6-KTva-LD-52" value="" style="whiteSpace=wrap;html=1;aspect=fixed;fillColor=#4D4D4D;" vertex="1" parent="1">
          <mxGeometry x="390" y="190" width="23" height="23" as="geometry" />
        </mxCell>
        <mxCell id="zMu5SDd8Gfc6-KTva-LD-53" value="" style="whiteSpace=wrap;html=1;aspect=fixed;fillColor=#4D4D4D;" vertex="1" parent="1">
          <mxGeometry x="344" y="236" width="23" height="23" as="geometry" />
        </mxCell>
        <mxCell id="zMu5SDd8Gfc6-KTva-LD-54" value="" style="whiteSpace=wrap;html=1;aspect=fixed;fillColor=#4D4D4D;" vertex="1" parent="1">
          <mxGeometry x="252" y="236" width="23" height="23" as="geometry" />
        </mxCell>
        <mxCell id="zMu5SDd8Gfc6-KTva-LD-55" value="" style="whiteSpace=wrap;html=1;aspect=fixed;fillColor=#4D4D4D;" vertex="1" parent="1">
          <mxGeometry x="160" y="236" width="23" height="23" as="geometry" />
        </mxCell>
        <mxCell id="zMu5SDd8Gfc6-KTva-LD-56" value="" style="ellipse;whiteSpace=wrap;html=1;fillColor=#d5e8d4;strokeColor=none;" vertex="1" parent="1">
          <mxGeometry x="110" y="520" width="340" height="180" as="geometry" />
        </mxCell>
        <mxCell id="zMu5SDd8Gfc6-KTva-LD-60" value="" style="rounded=0;whiteSpace=wrap;html=1;fillColor=#647687;fontColor=#ffffff;strokeColor=none;" vertex="1" parent="1">
          <mxGeometry x="-50" y="580" width="120" height="60" as="geometry" />
        </mxCell>
        <mxCell id="zMu5SDd8Gfc6-KTva-LD-63" value="" style="rounded=0;whiteSpace=wrap;html=1;" vertex="1" parent="1">
          <mxGeometry x="430" y="450" width="40" height="10" as="geometry" />
        </mxCell>
        <mxCell id="zMu5SDd8Gfc6-KTva-LD-64" value="" style="rounded=0;whiteSpace=wrap;html=1;" vertex="1" parent="1">
          <mxGeometry x="430" y="460" width="40" height="10" as="geometry" />
        </mxCell>
        <mxCell id="zMu5SDd8Gfc6-KTva-LD-65" value="" style="rounded=0;whiteSpace=wrap;html=1;" vertex="1" parent="1">
          <mxGeometry x="430" y="470" width="40" height="10" as="geometry" />
        </mxCell>
        <mxCell id="zMu5SDd8Gfc6-KTva-LD-66" value="" style="rounded=0;whiteSpace=wrap;html=1;" vertex="1" parent="1">
          <mxGeometry x="430" y="420" width="40" height="30" as="geometry" />
        </mxCell>
        <mxCell id="zMu5SDd8Gfc6-KTva-LD-67" value="" style="rounded=0;whiteSpace=wrap;html=1;" vertex="1" parent="1">
          <mxGeometry x="430" y="410" width="40" height="10" as="geometry" />
        </mxCell>
        <mxCell id="zMu5SDd8Gfc6-KTva-LD-68" value="" style="rounded=0;whiteSpace=wrap;html=1;" vertex="1" parent="1">
          <mxGeometry x="430" y="400" width="40" height="10" as="geometry" />
        </mxCell>
        <mxCell id="zMu5SDd8Gfc6-KTva-LD-69" value="" style="rounded=0;whiteSpace=wrap;html=1;" vertex="1" parent="1">
          <mxGeometry x="430" y="390" width="40" height="10" as="geometry" />
        </mxCell>
        <mxCell id="zMu5SDd8Gfc6-KTva-LD-71" value="" style="rounded=0;whiteSpace=wrap;html=1;" vertex="1" parent="1">
          <mxGeometry x="430" y="280" width="40" height="80" as="geometry" />
        </mxCell>
        <mxCell id="zMu5SDd8Gfc6-KTva-LD-72" value="" style="rounded=0;whiteSpace=wrap;html=1;" vertex="1" parent="1">
          <mxGeometry x="430" y="380" width="40" height="10" as="geometry" />
        </mxCell>
        <mxCell id="zMu5SDd8Gfc6-KTva-LD-73" value="" style="rounded=0;whiteSpace=wrap;html=1;" vertex="1" parent="1">
          <mxGeometry x="430" y="370" width="40" height="10" as="geometry" />
        </mxCell>
        <mxCell id="zMu5SDd8Gfc6-KTva-LD-74" value="" style="rounded=0;whiteSpace=wrap;html=1;" vertex="1" parent="1">
          <mxGeometry x="430" y="360" width="40" height="10" as="geometry" />
        </mxCell>
        <mxCell id="zMu5SDd8Gfc6-KTva-LD-76" value="Water&lt;br&gt;Hydrant" style="text;html=1;align=center;verticalAlign=middle;whiteSpace=wrap;rounded=0;" vertex="1" parent="1">
          <mxGeometry x="260" y="595" width="60" height="30" as="geometry" />
        </mxCell>
        <mxCell id="zMu5SDd8Gfc6-KTva-LD-78" value="&lt;font style=&quot;font-size: 8px; color: light-dark(rgb(88, 85, 85), rgb(237, 237, 237));&quot;&gt;Generator&lt;/font&gt;" style="text;html=1;align=center;verticalAlign=middle;whiteSpace=wrap;rounded=0;strokeColor=#A7A7A7;rotation=90;" vertex="1" parent="1">
          <mxGeometry x="440" y="374" width="46" height="30" as="geometry" />
        </mxCell>
        <mxCell id="zMu5SDd8Gfc6-KTva-LD-79" value="LP1" style="ellipse;whiteSpace=wrap;html=1;" vertex="1" parent="1">
          <mxGeometry x="450" y="740" width="90" height="30" as="geometry" />
        </mxCell>
        <mxCell id="zMu5SDd8Gfc6-KTva-LD-80" value="LP2" style="ellipse;whiteSpace=wrap;html=1;" vertex="1" parent="1">
          <mxGeometry x="450" y="780" width="90" height="30" as="geometry" />
        </mxCell>
        <mxCell id="zMu5SDd8Gfc6-KTva-LD-82" value="" style="curved=1;endArrow=none;html=1;rounded=0;exitX=0.556;exitY=0;exitDx=0;exitDy=0;exitPerimeter=0;entryX=1;entryY=0;entryDx=0;entryDy=0;startFill=0;fillColor=#e3c800;strokeColor=#B09500;" edge="1" parent="1" source="zMu5SDd8Gfc6-KTva-LD-79" target="zMu5SDd8Gfc6-KTva-LD-78">
          <mxGeometry width="50" height="50" relative="1" as="geometry">
            <mxPoint x="300" y="590" as="sourcePoint" />
            <mxPoint x="350" y="540" as="targetPoint" />
            <Array as="points">
              <mxPoint x="550" y="660" />
              <mxPoint x="550" y="600" />
              <mxPoint x="550" y="540" />
              <mxPoint x="560" y="480" />
            </Array>
          </mxGeometry>
        </mxCell>
        <mxCell id="zMu5SDd8Gfc6-KTva-LD-83" value="Well&lt;br&gt;(proposed)" style="text;html=1;align=center;verticalAlign=middle;whiteSpace=wrap;rounded=0;" vertex="1" parent="1">
          <mxGeometry x="325.5" y="595" width="60" height="30" as="geometry" />
        </mxCell>
        <mxCell id="zMu5SDd8Gfc6-KTva-LD-84" value="" style="rounded=0;whiteSpace=wrap;html=1;dashed=1;dashPattern=8 8;" vertex="1" parent="1">
          <mxGeometry x="120" y="120" width="120" height="60" as="geometry" />
        </mxCell>
        <mxCell id="zMu5SDd8Gfc6-KTva-LD-85" value="" style="rounded=0;whiteSpace=wrap;html=1;dashed=1;dashPattern=8 8;" vertex="1" parent="1">
          <mxGeometry x="310" y="120" width="120" height="60" as="geometry" />
        </mxCell>
        <mxCell id="zMu5SDd8Gfc6-KTva-LD-87" value="" style="rounded=0;whiteSpace=wrap;html=1;dashed=1;dashPattern=8 8;" vertex="1" parent="1">
          <mxGeometry x="240" y="120" width="70" height="60" as="geometry" />
        </mxCell>
        <mxCell id="zMu5SDd8Gfc6-KTva-LD-88" value="" style="ellipse;whiteSpace=wrap;html=1;aspect=fixed;fillStyle=solid;fillColor=light-dark(#100f0f, #ededed);" vertex="1" parent="1">
          <mxGeometry x="235.5" y="151.5" width="10" height="10" as="geometry" />
        </mxCell>
        <mxCell id="zMu5SDd8Gfc6-KTva-LD-90" value="" style="ellipse;whiteSpace=wrap;html=1;aspect=fixed;fillStyle=solid;fillColor=light-dark(#100f0f, #ededed);" vertex="1" parent="1">
          <mxGeometry x="304.5" y="151.5" width="10" height="10" as="geometry" />
        </mxCell>
        <mxCell id="zMu5SDd8Gfc6-KTva-LD-91" value="&lt;font style=&quot;color: rgb(149, 149, 149);&quot;&gt;Automatic Waterer&lt;/font&gt;" style="text;html=1;align=center;verticalAlign=middle;whiteSpace=wrap;rounded=0;" vertex="1" parent="1">
          <mxGeometry x="245" y="60" width="60" height="30" as="geometry" />
        </mxCell>
        <mxCell id="zMu5SDd8Gfc6-KTva-LD-95" value="" style="endArrow=classic;html=1;fontColor=#FF3333;rounded=0;exitX=0.653;exitY=1.083;exitDx=0;exitDy=0;exitPerimeter=0;entryX=0;entryY=0;entryDx=0;entryDy=0;fillColor=#d0cee2;strokeColor=#B3B3B3;" edge="1" parent="1" source="zMu5SDd8Gfc6-KTva-LD-91" target="zMu5SDd8Gfc6-KTva-LD-90">
          <mxGeometry width="50" height="50" relative="1" as="geometry">
            <mxPoint x="300" y="230" as="sourcePoint" />
            <mxPoint x="350" y="180" as="targetPoint" />
          </mxGeometry>
        </mxCell>
        <mxCell id="zMu5SDd8Gfc6-KTva-LD-96" value="" style="endArrow=classic;html=1;fontColor=#FF3333;rounded=0;exitX=0.417;exitY=1;exitDx=0;exitDy=0;exitPerimeter=0;entryX=0;entryY=0;entryDx=0;entryDy=0;fillColor=#bac8d3;strokeColor=#B3B3B3;" edge="1" parent="1" source="zMu5SDd8Gfc6-KTva-LD-91">
          <mxGeometry width="50" height="50" relative="1" as="geometry">
            <mxPoint x="218" y="90.5" as="sourcePoint" />
            <mxPoint x="240" y="151.5" as="targetPoint" />
          </mxGeometry>
        </mxCell>
        <mxCell id="NtqmDfJFhS1kOHj2P9ka-1" value="" style="rounded=0;whiteSpace=wrap;html=1;" vertex="1" parent="1">
          <mxGeometry x="215" y="360" width="120" height="60" as="geometry" />
        </mxCell>
        <mxCell id="NtqmDfJFhS1kOHj2P9ka-2" value="" style="verticalLabelPosition=bottom;html=1;verticalAlign=top;align=center;shape=mxgraph.floorplan.doorLeft;aspect=fixed;rotation=0;" vertex="1" parent="1">
          <mxGeometry x="310" y="360" width="8.32" height="8.84" as="geometry" />
        </mxCell>
        <mxCell id="NtqmDfJFhS1kOHj2P9ka-5" value="" style="verticalLabelPosition=bottom;html=1;verticalAlign=top;align=center;shape=mxgraph.floorplan.doorLeft;aspect=fixed;rotation=-180;" vertex="1" parent="1">
          <mxGeometry x="240" y="414.99" width="4.72" height="5.01" as="geometry" />
        </mxCell>
      </root>
    </mxGraphModel>
  </diagram>
</mxfile>
